<?xml version="1.0" encoding="utf-8"?>
<!-- Generator: Adobe Illustrator 26.0.0, SVG Export Plug-In . SVG Version: 6.00 Build 0)  -->
<svg version="1.1" id="Layer_1" xmlns="http://www.w3.org/2000/svg" xmlns:xlink="http://www.w3.org/1999/xlink" x="0px" y="0px"
	 viewBox="0 0 1000 1200" style="enable-background:new 0 0 1000 1200;" xml:space="preserve">
<style type="text/css">
	.st0{fill:#FFFFFF;}
</style>
<g>
	<g>
		<g>
			<path class="st0" d="M358.08,538.07l-18.38,42.25h8.42l3.82-9.67h18.33l3.93,9.67h8.6l-18.21-42.25H358.08z M354.49,564.21
				l6.61-17.19l6.5,17.19H354.49z"/>
			<rect x="386.95" y="535.22" class="st0" width="7.17" height="45.1"/>
			<polygon class="st0" points="441.38,567.68 430.11,538.07 418.66,538.07 418.66,580.32 425.82,580.32 425.82,545.24 
				425.94,545.24 438.76,580.32 444,580.32 456.85,545.24 456.97,545.24 456.97,580.32 464.14,580.32 464.14,538.07 452.77,538.07 
							"/>
			<path class="st0" d="M492.05,567.33c0,3.82-1.86,7.25-6.58,7.25c-5.01,0-5.24-5.24-5.24-8.39v-14.51h-7.17v18.09
				c0,5.83,2.74,11.28,10.46,11.28c4.78,0,7.46-2.45,8.77-5.33h0.12v4.6h6.79v-28.64h-7.14V567.33z"/>
			<path class="st0" d="M517.05,543.38h-7.17v8.3H504v6.09h5.89v13.11c0,6.76,1.81,10.17,9.38,10.17c1.66,0,4.17-0.26,5.65-0.96
				v-6.03c-0.87,0.64-2.62,0.9-3.88,0.9c-3.15,0-3.99-1.81-3.99-4.66v-12.53h7.87v-6.09h-7.87V543.38z"/>
			<path class="st0" d="M542.67,550.95c-4.54,0-9,1.37-12.18,4.6l3.76,3.76c1.92-1.78,4.66-2.97,7.63-2.97
				c3.82,0,6.58,1.84,6.58,5.36v0.79h-1.81c-7.17,0-18.01,0.64-18.01,9.96c0,5.65,5.13,8.6,10.43,8.6c3.82,0,7.17-1.46,9.21-4.66
				h0.17v3.93h6.44v-16.46C554.9,559.78,554.9,550.95,542.67,550.95z M548.03,569.1c0,3.99-2.33,6.56-7.2,6.56
				c-2.33,0-5.04-1.14-5.04-3.76c0-4.11,6.82-4.4,10.75-4.4h1.49V569.1z"/>
			<path class="st0" d="M578.3,550.95c-4.43,0-7.28,2.33-8.42,4.72h-0.12v-20.45h-7.17v45.1h7.17v-15.65c0-3.82,1.86-7.25,6.56-7.25
				c5.01,0,5.27,5.24,5.27,8.39v14.51h7.14v-18.09C588.73,556.4,585.99,550.95,578.3,550.95z"/>
			<polygon class="st0" points="620.52,562.05 639.9,562.05 639.9,555.26 620.52,555.26 620.52,544.86 640.98,544.86 640.98,538.07 
				613.01,538.07 613.01,580.32 642.05,580.32 642.05,573.53 620.52,573.53 			"/>
			<polygon class="st0" points="675.1,551.68 666.94,551.68 660.73,560.28 654.99,551.68 646.28,551.68 656.19,564.94 
				644.68,580.32 653.16,580.32 660.67,570.07 668.13,580.32 676.84,580.32 665.34,564.94 			"/>
			<path class="st0" d="M695,557.42c1.89,0,3.76,1.11,5.42,2.86l4.95-4.95c-2.74-3.06-6.73-4.37-10.37-4.37
				c-8.65,0-15.59,6.03-15.59,15.03c0,9.03,6.93,15.06,15.59,15.06c2.51,0,7.4-1.08,10.31-4.02l-4.78-5.13
				c-1.31,1.75-3.35,2.68-5.54,2.68c-5.27,0-8.42-4.11-8.42-8.59C686.58,561.53,689.72,557.42,695,557.42z"/>
			<path class="st0" d="M725.3,550.95c-4.43,0-7.28,2.33-8.42,4.72h-0.12v-20.45h-7.17v45.1h7.17v-15.65c0-3.82,1.86-7.25,6.56-7.25
				c5.01,0,5.27,5.24,5.27,8.39v14.51h7.14v-18.09C735.73,556.4,732.99,550.95,725.3,550.95z"/>
			<path class="st0" d="M755.98,550.95c-4.55,0-9,1.37-12.18,4.6l3.76,3.76c1.92-1.78,4.66-2.97,7.63-2.97
				c3.82,0,6.58,1.84,6.58,5.36v0.79h-1.81c-7.17,0-18.01,0.64-18.01,9.96c0,5.65,5.13,8.6,10.43,8.6c3.82,0,7.17-1.46,9.21-4.66
				h0.17v3.93h6.44v-16.46C768.22,559.78,768.22,550.95,755.98,550.95z M761.35,569.1c0,3.99-2.33,6.56-7.2,6.56
				c-2.33,0-5.04-1.14-5.04-3.76c0-4.11,6.82-4.4,10.75-4.4h1.49V569.1z"/>
			<path class="st0" d="M791.62,550.95c-4.78,0-7.46,2.45-8.77,5.33h-0.12v-4.6h-6.82v28.64h7.17v-15.65c0-3.82,1.86-7.25,6.56-7.25
				c5.01,0,5.27,5.24,5.27,8.39v14.51h7.14v-18.09C802.05,556.4,799.31,550.95,791.62,550.95z"/>
			<path class="st0" d="M832.88,555.96h-0.15c-2.07-3.44-5.83-5.01-9.85-5.01c-8.83,0-14.13,6.58-14.13,15.03
				c0,8.13,5.68,14.68,14.28,14.68c3.55,0,7.25-1.37,9.35-4.17h0.12v2.1c0,5.65-2.16,9.59-9.06,9.59c-3.99,0-6.99-1.49-9.85-4.11
				l-4.28,5.86c4.05,3.58,8.89,4.72,14.19,4.72c11.16,0,16.17-6.58,16.17-16.9v-26.08h-6.79V555.96z M824.34,574.23
				c-4.84,0-8.42-3.76-8.42-8.3c0-5.07,3.47-8.51,8.48-8.51c5.19,0,8.48,3.44,8.48,8.39C832.88,570.59,829.64,574.23,824.34,574.23z
				"/>
			<path class="st0" d="M861.93,550.95c-8.65,0-15.59,6.03-15.59,15.03c0,9.03,6.93,15.06,15.59,15.06c4.52,0,8.77-1.63,12.09-5.74
				l-5.13-3.87c-1.78,2.21-4.11,3.87-7.69,3.87c-3.99,0-7.23-2.56-7.69-6.82h21.82v-1.95C875.33,556.58,869.91,550.95,861.93,550.95
				z M853.51,563.13c0.52-4.11,3.15-6.79,7.4-6.79c4.46,0,7.23,2.62,7.28,6.79H853.51z"/>
			<path class="st0" d="M911.67,557.42c1.89,0,3.76,1.11,5.42,2.86l4.95-4.95c-2.74-3.06-6.73-4.37-10.37-4.37
				c-8.65,0-15.59,6.03-15.59,15.03c0,9.03,6.93,15.06,15.59,15.06c2.51,0,7.4-1.08,10.31-4.02l-4.78-5.13
				c-1.31,1.75-3.35,2.68-5.54,2.68c-5.27,0-8.42-4.11-8.42-8.59C903.25,561.53,906.4,557.42,911.67,557.42z"/>
			<path class="st0" d="M940.43,550.95c-8.65,0-15.59,6.03-15.59,15.03c0,9.03,6.93,15.06,15.59,15.06s15.56-6.03,15.56-15.06
				C955.99,556.98,949.08,550.95,940.43,550.95z M940.43,574.58c-5.27,0-8.42-4.11-8.42-8.59c0-4.46,3.15-8.57,8.42-8.57
				c5.24,0,8.39,4.11,8.39,8.57C948.82,570.47,945.67,574.58,940.43,574.58z"/>
			<polygon class="st0" points="352.26,487.04 357.19,482.09 352.26,477.11 347.25,482.09 			"/>
			<polygon class="st0" points="364.23,487.04 369.21,482.09 364.23,477.11 359.25,482.09 			"/>
			<path class="st0" d="M442.78,508.09c-0.46-12.29-4.95-25.26-12.4-24.23c-3.95,0.46-9.57,6.42-9.25,16.18
				c0,1.29,1.69,5.67,16.01,2.46c0.32,1.4,0.57,2.84,0.83,4.35h-21.96h0h-13.97h0h-13.97h0h-13.97h0h-6.21
				c-1.26-6.41-3.49-16.5-7.73-16.5c-5.73,0-13.06,10.57-13.98,16.72c-0.23,1.72-0.57,3.72-0.34,5.53h7.99
				c2.21,0,5.41,0.03,7.27,1.03l2.32-4.44c0.31,1.35,0.52,2.69,0.72,3.98h9.96h0h13.97h0h13.97h0h13.97h0h26.58
				C442.72,511.67,442.87,509.93,442.78,508.09z M431.53,497.55c-3.47,0.29-5.33-0.23-6.24-1.03c-0.37-0.37,1.58-6.33,5.04-6.33
				c1.95,0,3.84,2.64,5.24,6.76C434.02,497.27,432.67,497.47,431.53,497.55z M361.37,506.66c-1.23-0.32-3.04-0.63-5.76-0.63h-5.38
				c2.06-5.41,5.47-8.45,7.79-8.45c2.21,0,3.9,4.93,5.04,9.74C362.63,507.06,362.08,506.86,361.37,506.66z"/>
			<polygon class="st0" points="429.69,480.51 434.71,475.59 429.69,470.58 424.71,475.59 			"/>
			<polygon class="st0" points="469.79,518.17 464.86,523.16 469.79,528.17 474.8,523.16 			"/>
			<polygon class="st0" points="485.82,523.16 480.84,518.17 475.89,523.16 480.84,528.17 			"/>
			<path class="st0" d="M573.51,475.65l-6.04,3.69v27.52h-8.22h0h-4.98v-31.22l-6.04,3.69v27.52h-8.53h0h-2.52
				c0.83-8.93-2.98-13.03-5.87-14.78c-2.63-1.4-6.04-1.29-8.68-0.06c-5.73,2.75-13.12,10.25-18.07,14.83h-2.23
				c-0.2-0.95-0.46-2.03-0.8-3.26c-0.57-2.15-1.43-5.18-2.72-8.99l-4.5,4.75c1.26,2.75,2,4.55,2.46,5.78
				c0.26,0.72,0.46,1.29,0.57,1.72h-11.43h0h-2.55c-0.09-4.32-1.37-9.91-4.35-15.84l-4.93,5.7c2.23,3.84,3.78,6.3,4.93,10.14h-13.95
				h0h-4.12c-0.54-5.47-2.26-10.77-5.01-16.12l-4.67,6.21c2.81,4.27,4.32,7.33,5.33,12.09c-1.15,6.36-3.72,12.51-10.91,17.18
				l6.5,5.5c6.04-7.04,8.13-13.09,8.68-18.53h4.21h0h20.85h0h53.78h0h19.56h0h14.26V475.65z M511,506.86
				c8.36-7.25,10.94-8.85,14.49-8.85c2.95,0,7.45,1.8,7.45,8.85H511z"/>
			<path class="st0" d="M619.64,524.27c-1.46,0.89-13.69,5.04-18.53-2.12c-4.84-7.16,3.61-18.1,10.08-21.68l-0.06-0.06
				c4.47,0.92,8.73,1.35,9.57-0.89l1.8-4.75c-1.92,1.69-16.61-2.92-21.28-2.92c-2.95,0-4.55,1-6.39,3.98l-2.46,4.1l0.92,0.77
				c0.54-0.54,1.06-0.97,1.37-1.29c1.23-1.17,3.12-1.6,6.21-1.29c1.29,0.11,3.29,0.63,5.56,1.17c-9.68,6.64-12.97,14.43-12.89,20.16
				c0.11,7.16,3.92,14.49,15.64,14.26c2.41-0.09,5.13-0.52,7.99-1.52L619.64,524.27z"/>
			<polygon class="st0" points="700.34,487.73 705.33,482.8 700.34,477.79 695.33,482.8 			"/>
			<polygon class="st0" points="688.34,487.73 693.3,482.8 688.34,477.79 683.36,482.8 			"/>
			<path class="st0" d="M750.11,475.65l-6.04,3.69v27.52h-8.22h0h-4.04c-0.57-5.5-3.58-13.66-9.48-13.66
				c-5.01,0-7.93,7.5-8.51,13.66h-5.96h0h-2.78c-0.09-4.32-1.37-9.91-4.35-15.84l-4.93,5.7c2.23,3.84,3.78,6.3,4.93,10.14h-18.76h0
				h-13.97h0h-13.97h0h-13.97h0h-5.76v-31.22l-6.04,3.75v33.79h11.8h0h13.97h0h13.97h0h13.97h0h25.89h0h9.71
				c4.44,0,8.22,0.97,11.66,4.87c0.26-0.4,0.54-0.86,0.8-1.35c0.46-0.89,1-2.06,1.37-3.52h4.44h0h14.26V475.65z M728.12,509.84
				c-2.84-2.38-6.07-2.98-9.68-2.98h-0.63c1.66-4.7,3.04-6.36,4.87-6.59C724.86,500.05,728.35,503.11,728.12,509.84z"/>
			<polygon class="st0" points="761.83,513.05 761.83,475.59 755.73,479.34 755.73,516.8 			"/>
			<polygon class="st0" points="799.54,487.04 804.52,482.09 799.54,477.11 794.56,482.09 			"/>
			<polygon class="st0" points="787.57,487.04 792.5,482.09 787.57,477.11 782.56,482.09 			"/>
			<path class="st0" d="M874.43,491.2l13.55-8.51c2.72-1.66,3.98-1.26,4.52-0.17v-5.1c0-2.43-2.18-3.61-5.38-1.46l-13.32,8.31
				c-2.23,1.46-4.52,3.18-4.52,6.99v6.04c1.12,0,2.55,0.03,4.47,0.23c8.22,0.92,12.49,3.78,14.35,9.34h-22.8h0h-13.97h0h-13.97h0
				h-13.97h0h-13.97h0h-6.21c-1.26-6.41-3.49-16.5-7.73-16.5c-5.73,0-13.06,10.57-13.98,16.72c-0.23,1.72-0.57,3.72-0.34,5.53h7.99
				c2.21,0,5.41,0.03,7.27,1.03l2.32-4.44c0.31,1.35,0.52,2.69,0.72,3.98h9.96h0h13.97h0h13.97h0h13.97h0h13.97h0h30.67
				C895.96,502.11,890.49,492.89,874.43,491.2z M796.68,506.66c-1.23-0.32-3.04-0.63-5.76-0.63h-5.38c2.06-5.41,5.47-8.45,7.79-8.45
				c2.21,0,3.89,4.93,5.04,9.74C797.94,507.06,797.39,506.86,796.68,506.66z"/>
			<path class="st0" d="M949.34,496.78c2.23,3.84,3.78,6.27,4.93,10.08h-8.05c-0.2-4.15-1.49-9.42-4.21-14.83l-4.35,5.67
				c2,3.47,3.44,5.93,4.52,9.16h-7.56c-0.2-0.95-0.46-2.03-0.8-3.26c-0.57-2.15-1.43-5.18-2.72-8.99l-4.5,4.75
				c1.26,2.75,2,4.55,2.46,5.78c0.26,0.72,0.46,1.29,0.57,1.72h-11.45h0h-4.12c-0.54-5.47-2.26-10.77-5.01-16.12l-4.67,6.21
				c2.81,4.27,4.32,7.33,5.33,12.09c-1.15,6.36-3.72,12.51-10.91,17.18l6.5,5.5c6.04-7.04,8.13-13.09,8.68-18.53h4.21h0h39.35
				c0.23-1.6,0.49-3.89,0.49-6.16c0-4.32-1.32-9.99-4.3-15.95L949.34,496.78z"/>
			<polygon class="st0" points="929.38,483.55 934.36,488.56 939.38,483.55 934.36,478.57 			"/>
			<polygon class="st0" points="945.3,475.04 940.38,470.12 935.37,475.04 940.38,480.03 			"/>
			<polygon class="st0" points="951.35,483.55 946.36,478.57 941.35,483.55 946.36,488.56 			"/>
		</g>
		<g>
			<polygon class="st0" points="202.18,517.04 191.22,525.81 141.91,468.83 140.81,600.32 125.48,600.32 125.48,426.09 			"/>
			<polygon class="st0" points="125.48,600.32 125.48,426.09 202.18,517.04 191.22,525.81 141.91,468.83 140.81,600.32 			"/>
			<polygon class="st0" points="125.48,426.09 202.18,517.04 191.22,525.81 141.91,468.83 140.81,600.32 125.48,600.32 			"/>
			<polygon class="st0" points="232.03,538.41 224.1,538.37 224.1,600.32 210.95,600.32 210.95,538.32 203.01,538.29 210.32,525.75 
				217.63,513.21 224.83,525.81 			"/>
			<polygon class="st0" points="259.17,501.92 252.59,501.89 252.59,600.32 239.44,600.32 239.44,501.85 232.86,501.81 
				239.49,490.45 246.11,479.08 252.64,490.51 			"/>
			<polygon class="st0" points="313.25,429.76 307.37,429.74 307.37,600.32 294.22,600.32 294.22,429.69 288.35,429.66 
				294.61,418.9 300.88,408.14 307.07,418.95 			"/>
			<path class="st0" d="M330.58,623.66l-27.32,54.9l-11.91-13.56c-31.65,12.19-67.33,16.45-103.68,11.6
				c-27.15-3.62-53-12.65-75.32-26.37c-49.53-30.44-77.22-77.53-76.74-128.2c0.39-41.1,19.98-80.58,54.22-109.4
				c34.13-28.73,79.23-44.54,127.17-44.54c8.1,0,16.13,0.45,24.03,1.34c62.6,10.3,89.43,41.54,89.43,41.54
				c-27.78-21.09-64.24-33.99-104.21-34.29c-88.05-0.66-160.49,60.66-160.64,136.02c-0.15,75.37,71.2,136.5,159.22,136.5
				c16.46,0,32.34-2.14,47.28-6.11l-10.75-12.24l34.61-3.6L330.58,623.66z"/>
			<polygon class="st0" points="286.26,464.51 279.97,464.49 279.97,600.32 266.83,600.32 266.83,464.42 260.55,464.4 
				267.03,453.29 273.49,442.19 279.88,453.34 			"/>
		</g>
	</g>
</g>
</svg>
