<svg id="Object" xmlns="http://www.w3.org/2000/svg" viewBox="0 0 569.16 664"><defs><style>.cls-1{fill:#001f60;}.cls-2{fill:#ffc311;}</style></defs><path class="cls-1" d="M574.39,890.91a19.64,19.64,0,0,0,20.46-1.73L816.69,725.5a19.6,19.6,0,0,0,0-31.49L594.89,529.28A19.6,19.6,0,0,0,563.62,545v65.86H296a19.55,19.55,0,0,0-19.58,19.59V788A19.53,19.53,0,0,0,296,807.55H563.62v65.86A19.63,19.63,0,0,0,574.39,890.91Z" transform="translate(-276.42 -229)"/><path class="cls-2" d="M526.18,231a18.58,18.58,0,0,0-19.35,1.63L285,396.3a18.55,18.55,0,0,0-.05,29.79l221.84,164.7a18.52,18.52,0,0,0,29.57-14.87V509H827.05a18.52,18.52,0,0,0,18.53-18.53V333a18.52,18.52,0,0,0-18.53-18.53H536.36V247.53A18.58,18.58,0,0,0,526.18,231Z" transform="translate(-276.42 -229)"/></svg>