<svg id="Iraq" xmlns="http://www.w3.org/2000/svg" viewBox="0 0 266.5 335.44"><defs><style>.cls-1{fill:#001f60;stroke:#000;stroke-linecap:round;stroke-linejoin:round;stroke-width:0.5px;}.cls-2{fill:#eaac11;}.cls-3{fill:#ffc311;}</style></defs><path class="cls-1" d="M429.88,172.7l-.37,1V174l.21.6.16.23.2.09.2.06.2.14.1.22.14.52.13.17.25.06.54-.17h.26l.19.11.31.33.59.32.18.3-.05.37-.29.38-.16.91.16.6.25.55.13.77-.15.81-.37.61-1,1.19-.29.84.21.59.55.36.7.16.85,0,.39.06.34.3.25.3.28.2.32.1h.35l.46.25.4.55.66,1.22.29.73,0,.63-.53,1.23-.29,1.16,0,.71-.08.06-.34.14-.12.08-.05.54.39.51.1.08.43.37.35.38,0,.48.18.28.23.22.22.33.13.44,0,.33.11.31.31.36.73.34.8-.06,1.52-.61.69,0,.47.61.3.84.13.79.07,1.45.19.59.51.65-.66.43.15.4.51.4.4.39.12.65-.07,1.56.14.7.84,1.1.35.68-.11.68-.34.53-.33.69-.16.69.18.55h0l.48.49.59.08.6-.2.54-.37h0l.49-.14.9-.45h.71l.6.22,1.05.39,1,.93.35.22.74.14.81.75,1.26,1.79.69,1.73.33.44.49.14,1-.31.3.06.44.3.56,0,.53-.26.66-.56h.27l.28.09.29,0,.87-.31,1.73.08.55-.17.52-.31.44-.16h.45l.84.32.19,0,.13.12.14.68.12.24.16.18.22.18.55.24.58,0,1.16-.26.51-.19.47-.32.49-.24.58.06.46.32.2.45-.06.52L472,219l-.44.39-.82.53-.37.55-.43.41-.56.06-1.07-.06-1.36.73-.56.13-1.91-.06-.56.19-.34.39-.22.53-.09.58V224l.26,1.28-.07.46-.83-.25h-.14l-.12,0,.24.68.3.63.11.14,0,.15,0,.13-.11.13-.21.17-.15.22-.06.27v.31l.35,1,1.74,2.79,1.5,1.35.65.76.2,1-.06.13-.14.34-.34.4-.24.43.07.52.38.27h1.06l.41.34-.11.88-.58,1-.37.93.56.66-.21.4-.3.16-.33.07-.69.23-.49-.13-.27,0-.73.44-.4.37-.43.12-.82-.36-.35,0-.28-.12-.57-.37-.4-.14-.19.08-.38.62,0,.16.08.4-.06.16-.16.08-.38,0-.18.06-.29.29-.13.38v.44l.08.45h0l.25.86-.07.62-.23.61-.21.81-.41.55-.73-.26-.32-.17-.49-.26-.63,0-.18.64.05.84-.14.81-.75.53-.77.08-.35.14-.26.38-.09.39.06.67-.08.38-.76.87-.2.54.4.46.23.13.24.19.2.24.1.27.08.35.13.2.14.16.11.23.09.63v.62l.09.56.3.43.08.21V259l-.08.36-.11.21-.16,0-.6-.21-1.87-.15-.84-.2-.93-.49-1.06-.32-.11.91.23,1.34,0,1-.13.26-.16.24-.17.21-.2.18-1.43.32-.26.44.84,2.71.35.71.5.37.54-.44h.61l.56.36.42.65.15.74-.06.81-.36,1.59-.13.29-.39.63-.05.3.13.37.2.29.15.28v.37l-.27.37-1.1.9-.4.43-.66.58-.31.73-.23.84-.41.91h0l-.22.24-.27.18-.58.26.56.79.62.35.71.05.8-.13h.07l.06,0,.05.05,2.42,4.41.36.4.42.36.36.39.19.54.12.66.19.58.27.53.37.53.41.42,1.28.92.1.25.09.24v1.16l.19.23.47-.12.45-.3.79-.76.5-.21,1.32,0,.59-.15-.11,1,.48.5.58.39.19.72-.34.5-1.29.79-.42.56.46.4.81.19.82-.11.51-.48.13-.08.14,0,.14,0,0,0,.1.06.09.05.08.06.91,1.15.31.56.22.62.09.66v.54l.14.47.91.89,1.08,1.53.87.7.38.39.24.55v.33l-.17.63,0,.26.12.3.32.2,0,.3-.2.41-.37.46-.74.73-.57.44-.44.08-.46,0-.59.05-.55.31,0,.39.38.33,1.2.14.51.22.39.35.16.44-.19.55-.4.42-.45.37-.34.39h0l.58,1.3,1.6.19,3.2-.36,2.89.9,2.71,1.29.76.77,2.53,1.47.11.06,1.25,1,1.78,1.07,1.12,1.29,8.19,7.16h0l.86.64.83.43.86.19,1-.1.48-.18,1.24-.69.38,0,1.54.53.59.31.34.4.31.5.45.58.73.56.15.24,0,.37-.09.21-.16.18-.24.6-.1.12v.16l.18.43.13.19.81.77.13.18.1.18.48.67.17.18.27.13.14.41.53.4.14.42,0,.45-.14.31-.16.28-.11.35-.06.45,0,.25.18.15.43.12.35.22.22.33.24.28.41.05.53.22.06.08.4.58.62,1.4.41.48.95.46.27.57h0l.13.56,1,1.75.19.26.49.32.21.19.15.29.14.56.1.24.43.49,1.07.81.38.57.07.68-.16.73-4.14,11.29-.07,5.45-.09,7.68h8.93l.29.18.09.41-.1,15.23,0,1,2.87.41.31.11.28.17.45.5.35.61.25.69.22,1.39.12.3.22.23.3.14.32,0h.33l1-.17.34,0,.33.11.26.22.55.92.87,1,1.06,1,.18.27.14.32.05.34-.07.33-.2.27-.26.24-.21.26-.06.35.05.22.34.73.54.61.16.33.07.05.5,1.56,0,.41.25.61.12.21.18.18.38.3.4.24.84.24.19.09v.16h.65l.12.31-.34.37-.71.19-3-.3-2.07-.72-1-.73-1-.29-1.51-1-1.18-.41-1.26-.24-1.17,0-1,.28-1.89,1-.19-.83-.09-.95-.19-.87-.46-.59.34,1,0,.38-.07.41-.12.38,0,.33.21.28,0,.74-5.88-3-1.56-.31h-7l-1.56.19L496,404.93l-1.42,1-.94,1.33-2.31,5.92-1,1.86-.14.45-.11,1-.06.31-.53,1.18-2,3.37-.8,2.12-.41.61-1.74,1.92-1.7,2.87-4.09,4.59-.79.88-1.19.26-1.19.25-.48.1-.71.16-1.19.25-2.86-.26-2.07-.19-2.07-.19-2.07-.18-2.07-.19-2.79-.26-2.79-.25-2.78-.25-2.79-.25-2.79-.26-2.78-.25-2.79-.25-2.78-.26-2.17-.19-2.16-.2-2.16-.19-2.17-.2-2.49-.23-.18-.06-.17-.07L428,431l-.18-.07-2.09-1.69-2.58-2.09-2.6-2.1L418,423l-2.59-2.1-3.12-2.52-3.11-2.53-3.11-2.53-1.8-1.46L403,410.77l-3.11-2.54-3.12-2.53-3.11-2.54-3.12-2.54-2.39-1.95-2.4-2-2.39-2-2.4-2L378,390.44h0l-2-1.78-.53-.46L372.88,386l-2.58-2.25-2.57-2.24-2.3-2-2.3-2-2.29-2-2.3-2-1.8-1.57-2.43-1.44-2.38-1.42-2.39-1.42-2.38-1.42-2.39-1.42-2.38-1.43L340,362l-2.38-1.42-2.38-1.43-2.39-1.42-2.39-1.43-2.38-1.43-2.39-1.42L323.31,352l-2.38-1.43-2.39-1.43-2.38-1.43-2.8-1.68-1.51-.88-1.47-.58-9.27-1.79h0l-2.18-.38-5.37-.92-5.38-.92-5.37-.93-5.38-.92-.08,0-.07,0-.08,0-.08,0v-.25l3.27-2.79.7-1-.57-2.17-.4-1-.56-.32-5.15,1.42-.28-.15-.2-.48-1.32-4.63,0-.06v-.06h0l2.09-.66-1.82-6.75-1.29-4.74-1.23-4.6-.95-3.45-1.13-4.17L267,298.26l3-1.8,3-1.81,3-1.8,3-1.81,3-1.81,3-1.81,3-1.81,3-1.81,3-1.81,3-1.82,3-1.81,3-1.82,1.95-1.18,1.06-.64,3-1.81,3-1.82,3-1.83,4-2.42,6.67-1.79.8-.52.61-.88,1-2.17h0l4.67-9.06.23-.82.06-.86-.23-5.79-.15-5.48,0-.77.26-2,1.14-4.11.24-3.26.25-1h0l1.29-1.93.91-1.39.43-1,.15-1.05-.11-4.6-.13-1.1-.3-1.08-2.1-4.58h0l-.7-1.64-.11-.58v-.56l.88-8.46.22-.9,2.4-4.7h0L338,194l.8-.38,1.76-.29,8.43-1.8.75-.36.72-.61,3.66-3.92,5.44-5.83,2.8-3h0l1.74-1.67.84-.65h0v-.5l-.15-.38-.21-.35-.17-.4,1.21-.14,1.56-.52,2.34-.4.43-.19.1-.19.33-.92,3.41-5,.1-.27,0-.24.05-.24.17-.28.18-.12,1.34-.55.24,0,.33,0,.23.18.12.59.24.17,2.24.75,1.1.16,1.16-.4.69-.52,1-.45,1.1-.29.84-.08.47.13,3.57,1.94.19.07.23,0,.24,0,.25-.26.24-.11.5-.08.33.07.72.56.36.29,1.11.55,1.26,1.05.45.18.35-.05.67-.26.34-.05.35.05.22.12.5.38.68.28.66.09,2.79-.2.71.07.64.17.27.18.58.58.2.13.35-.09.49-.51,1.45-.26.83-1,.81-1.18,1-.85,1.23-.2.91.15.52.09,2.62,1.09.61.4.44.46.32.59.24.79.13.74,0,.43,0,.33-.23.4-.27.13-.31.05-.35.21-.45.59-.23.69,0,.73.2.71,1.1,2.48.17.35.25.2,1.13.29.34,0,.25-.25.25-.57h0l.42-.73.1-.54.21-.38,2.31-.76.72-.39.67-.54.66-.84,1-.92,1.06-.78.87-.4.5,0,2.85.41.55.27Z" transform="translate(-266.75 -100.08)"/><path class="cls-2" d="M462.58,152.69a196.86,196.86,0,0,0-35.28-52.61c-1.31,6-2,9-3.28,15-28.59-7.32-55.95-4.81-84.82,7.72q2.79,13.92,5.56,27.85c24.92-10.6,48.27-12.73,72.94-6.64l-3.28,15A108.32,108.32,0,0,1,462.58,152.69Z" transform="translate(-266.75 -100.08)"/><path class="cls-3" d="M341.93,136.45c1.13,5.68,1.7,8.52,2.83,14.2,24.92-10.6,48.27-12.73,72.94-6.64l-3.28,15a108.32,108.32,0,0,1,48.16-6.32l-.25-.57C425.6,123.3,384.85,118,341.93,136.45Z" transform="translate(-266.75 -100.08)"/></svg>